<svg width="40" height="40" viewBox="0 0 40 40" fill="none" xmlns="http://www.w3.org/2000/svg">
<g clip-path="url(#clip0_520_5602)">
<path d="M0 20.0001C0 8.95431 8.95431 0 20.0001 0C31.0457 0 40 8.95431 40 20.0001C40 31.0457 31.0457 40 20.0001 40C8.95431 40 0 31.0457 0 20.0001Z" fill="#315FFB"/>
<path d="M21.0201 30.9476V20.3447H23.9469L24.3347 16.6909H21.0201L21.025 14.8622C21.025 13.9092 21.1156 13.3986 22.4843 13.3986H24.314V9.74434H21.3868C17.8706 9.74434 16.6331 11.5168 16.6331 14.4976V16.6913H14.4414V20.3451H16.6331V30.9476H21.0201Z" fill="white"/>
</g>
<defs>
<clipPath id="clip0_520_5602">
<rect width="40" height="40" fill="white"/>
</clipPath>
</defs>
</svg>
