<svg width="40" height="40" viewBox="0 0 40 40" fill="none" xmlns="http://www.w3.org/2000/svg">
<g clip-path="url(#clip0_520_5756)">
<path d="M0 20.0001C0 8.95431 8.95431 0 20.0001 0C31.0457 0 40 8.95431 40 20.0001C40 31.0457 31.0457 40 20.0001 40C8.95431 40 0 31.0457 0 20.0001Z" fill="white"/>
<path fill-rule="evenodd" clip-rule="evenodd" d="M20.251 10C17.4672 10 17.1179 10.0122 16.0245 10.0619C14.9333 10.1119 14.1884 10.2847 13.5368 10.5381C12.8625 10.7999 12.2907 11.1502 11.7209 11.7201C11.1508 12.2899 10.8006 12.8618 10.5379 13.5357C10.2838 14.1876 10.1108 14.9327 10.0617 16.0234C10.0128 17.1168 10 17.4663 10 20.2501C10 23.0339 10.0124 23.3822 10.0619 24.4755C10.1121 25.5667 10.2849 26.3116 10.5381 26.9633C10.8001 27.6374 11.1504 28.2093 11.7203 28.7791C12.2899 29.3492 12.8617 29.7003 13.5355 29.9621C14.1876 30.2156 14.9327 30.3884 16.0237 30.4383C17.1171 30.4881 17.4661 30.5002 20.2497 30.5002C23.0337 30.5002 23.382 30.4881 24.4754 30.4383C25.5665 30.3884 26.3122 30.2156 26.9644 29.9621C27.6383 29.7003 28.2094 29.3492 28.7788 28.7791C29.3491 28.2093 29.6992 27.6374 29.9619 26.9635C30.2139 26.3116 30.3868 25.5665 30.4381 24.4758C30.4873 23.3824 30.5 23.0339 30.5 20.2501C30.5 17.4663 30.4873 17.117 30.4381 16.0236C30.3868 14.9325 30.2139 14.1876 29.9619 13.5359C29.6992 12.8618 29.3491 12.2899 28.7788 11.7201C28.2087 11.1499 27.6385 10.7997 26.9637 10.5381C26.3103 10.2847 25.565 10.1119 24.4739 10.0619C23.3805 10.0122 23.0324 10 20.2478 10H20.251ZM19.3315 11.8472C19.51 11.8469 19.7021 11.847 19.9093 11.8471L20.251 11.8472C22.9877 11.8472 23.3121 11.857 24.3929 11.9061C25.3922 11.9518 25.9347 12.1188 26.296 12.259C26.7744 12.4448 27.1153 12.667 27.4739 13.0257C27.8326 13.3845 28.0547 13.7261 28.241 14.2044C28.3812 14.5653 28.5484 15.1078 28.5939 16.1072C28.6431 17.1877 28.6537 17.5122 28.6537 20.2478C28.6537 22.9833 28.6431 23.3079 28.5939 24.3884C28.5482 25.3878 28.3812 25.9302 28.241 26.2911C28.0552 26.7694 27.8326 27.11 27.4739 27.4685C27.1151 27.8273 26.7746 28.0494 26.296 28.2352C25.9351 28.3761 25.3922 28.5427 24.3929 28.5884C23.3123 28.6376 22.9877 28.6482 20.251 28.6482C17.5139 28.6482 17.1896 28.6376 16.1091 28.5884C15.1097 28.5423 14.5673 28.3753 14.2057 28.235C13.7274 28.0492 13.3858 27.8271 13.027 27.4683C12.6682 27.1096 12.4461 26.7688 12.2599 26.2902C12.1196 25.9293 11.9525 25.3869 11.9069 24.3876C11.8579 23.307 11.848 22.9824 11.848 20.2453C11.848 17.508 11.8579 17.1851 11.9069 16.1046C11.9527 15.1052 12.1196 14.5628 12.2599 14.2015C12.4457 13.7232 12.6682 13.3814 13.027 13.0227C13.3858 12.6639 13.7274 12.4419 14.2057 12.2557C14.5671 12.1147 15.1097 11.9481 16.1091 11.9023C17.0546 11.8595 17.4211 11.8468 19.3315 11.8446V11.8472ZM24.4924 14.7787C24.4924 14.0995 25.0434 13.5491 25.7224 13.5491C26.4015 13.5491 26.9525 14.0997 26.9525 14.7787C26.9525 15.4578 26.4015 16.0087 25.7224 16.0087C25.0434 16.0087 24.4924 15.4578 24.4924 14.7787ZM20.2508 14.9863C17.3439 14.9864 14.9871 17.3432 14.9871 20.2501C14.9871 23.1571 17.344 25.5129 20.251 25.5129C23.158 25.5129 25.514 23.1571 25.514 20.2501C25.514 17.3431 23.1578 14.9863 20.2508 14.9863ZM23.6677 20.2501C23.6677 18.3631 22.1378 16.8335 20.251 16.8335C18.3639 16.8335 16.8343 18.3631 16.8343 20.2501C16.8343 22.137 18.3639 23.6668 20.251 23.6668C22.1378 23.6668 23.6677 22.137 23.6677 20.2501Z" fill="black"/>
</g>
<defs>
<clipPath id="clip0_520_5756">
<rect width="40" height="40" fill="white"/>
</clipPath>
</defs>
</svg>
