<svg width="40" height="40" viewBox="0 0 40 40" fill="none" xmlns="http://www.w3.org/2000/svg">
<g clip-path="url(#clip0_520_5766)">
<path d="M0 20.0001C0 8.95431 8.95431 0 20.0001 0C31.0457 0 40 8.95431 40 20.0001C40 31.0457 31.0457 40 20.0001 40C8.95431 40 0 31.0457 0 20.0001Z" fill="#0077B5"/>
<path fill-rule="evenodd" clip-rule="evenodd" d="M14.9686 12.0364C14.9686 13.3106 14.0095 14.3302 12.4695 14.3302H12.4413C10.9586 14.3302 10 13.3106 10 12.0364C10 10.7354 10.9878 9.74434 12.4986 9.74434C14.0095 9.74434 14.94 10.7354 14.9686 12.0364ZM14.6777 16.1413V29.4113H10.2612V16.1413H14.6777ZM30.6053 29.4113L30.6055 21.8028C30.6055 17.7268 28.4267 15.8297 25.5204 15.8297C23.1755 15.8297 22.1256 17.1177 21.5395 18.0213V16.1417H17.1223C17.1806 17.3869 17.1223 29.4117 17.1223 29.4117H21.5395V22.0006C21.5395 21.604 21.5682 21.2084 21.6849 20.9245C22.0041 20.1321 22.7308 19.3118 23.951 19.3118C25.5498 19.3118 26.189 20.5286 26.189 22.3119V29.4113H30.6053Z" fill="white"/>
</g>
<defs>
<clipPath id="clip0_520_5766">
<rect width="40" height="40" fill="white"/>
</clipPath>
</defs>
</svg>
