<svg width="40" height="40" viewBox="0 0 40 40" fill="none" xmlns="http://www.w3.org/2000/svg">
<g clip-path="url(#clip0_526_5968)">
<path d="M0 20.0001C0 8.95431 8.95431 0 20.0001 0C31.0457 0 40 8.95431 40 20.0001C40 31.0457 31.0457 40 20.0001 40C8.95431 40 0 31.0457 0 20.0001Z" fill="#1ED760"/>
<path fill-rule="evenodd" clip-rule="evenodd" d="M9.20405 16.5246C14.8236 14.7776 24.5335 15.1068 30.4201 18.6878C31.2299 19.1814 32.279 18.9073 32.7605 18.0759C33.2416 17.2459 32.9755 16.1721 32.1636 15.6785C25.3868 11.558 14.6633 11.1706 8.21226 13.1763C7.30922 13.4572 6.80046 14.4341 7.07392 15.3591C7.34716 16.2834 8.30146 16.8052 9.20405 16.5246ZM30.1946 23.4576C29.7916 24.1241 28.9365 24.3332 28.2835 23.9239C23.4949 20.9238 16.1924 20.0545 10.5267 21.8073C9.79218 22.0335 9.01614 21.6114 8.79291 20.8639C8.57161 20.1151 8.98592 19.3257 9.71941 19.098C16.1915 17.0961 24.2373 18.0657 29.7375 21.5108C30.3906 21.9207 30.5962 22.7926 30.1946 23.4576ZM28.5002 28.7632C28.1738 29.3251 27.4767 29.501 26.9434 29.1586C22.6775 26.4227 17.308 25.8049 10.9845 27.3205C10.3751 27.4671 9.76772 27.0664 9.62888 26.4273C9.48918 25.7878 9.86967 25.1505 10.4803 25.0045C17.4004 23.3446 23.3363 24.0589 28.1246 27.1293C28.6584 27.4714 28.8265 28.2033 28.5002 28.7632Z" fill="white"/>
</g>
<defs>
<clipPath id="clip0_526_5968">
<rect width="40" height="40" fill="white"/>
</clipPath>
</defs>
</svg>
