<svg width="40" height="40" viewBox="0 0 40 40" fill="none" xmlns="http://www.w3.org/2000/svg">
<g clip-path="url(#clip0_526_6064)">
<path d="M20 40C31.0457 40 40 31.0457 40 20C40 8.95431 31.0457 0 20 0C8.95431 0 0 8.95431 0 20C0 31.0457 8.95431 40 20 40Z" fill="#FF0000"/>
<path fill-rule="evenodd" clip-rule="evenodd" d="M28.7045 13.4179C29.6081 13.6479 30.3197 14.3256 30.5612 15.1861C31 16.7458 31 20 31 20C31 20 31 23.2541 30.5612 24.8139C30.3197 25.6744 29.6081 26.3521 28.7045 26.5821C27.0669 27 20.5 27 20.5 27C20.5 27 13.9331 27 12.2955 26.5821C11.3919 26.3521 10.6802 25.6744 10.4387 24.8139C10 23.2541 10 20 10 20C10 20 10 16.7458 10.4387 15.1861C10.6802 14.3256 11.3919 13.6479 12.2955 13.4179C13.9331 13 20.5 13 20.5 13C20.5 13 27.0669 13 28.7045 13.4179ZM18.3301 16.7385V22.9816L23.7148 19.8601L18.3301 16.7385Z" fill="white"/>
</g>
<defs>
<clipPath id="clip0_526_6064">
<rect width="40" height="40" fill="white"/>
</clipPath>
</defs>
</svg>
