<svg width="40" height="40" viewBox="0 0 40 40" fill="none" xmlns="http://www.w3.org/2000/svg">
<rect width="40" height="40" rx="20" fill="black"/>
<path fill-rule="evenodd" clip-rule="evenodd" d="M20 29C15.0296 29 11 24.9704 11 20C11 15.0296 15.0296 11 20 11C24.9704 11 29 15.0296 29 20C29 24.9704 24.9704 29 20 29ZM20.6544 15.6488C18.8644 15.4828 16.962 15.7364 15.2756 16.484C15.1782 16.5257 15.09 16.5863 15.0163 16.6623C14.9425 16.7384 14.8845 16.8283 14.8458 16.9269C14.807 17.0255 14.7883 17.1308 14.7905 17.2367C14.7928 17.3427 14.8161 17.4471 14.8591 17.5439C14.9021 17.6407 14.9638 17.7281 15.0408 17.8009C15.1178 17.8736 15.2085 17.9304 15.3076 17.9678C15.4067 18.0053 15.5123 18.0227 15.6182 18.019C15.724 18.0153 15.8281 17.9906 15.9244 17.9464C17.3328 17.322 18.9572 17.0984 20.5068 17.242C22.0656 17.386 23.5692 17.9048 24.7124 18.7836C24.8809 18.9076 25.0913 18.9606 25.2985 18.9313C25.5056 18.9021 25.6931 18.7928 25.8206 18.6269C25.9482 18.4611 26.0057 18.2519 25.9808 18.0441C25.956 17.8364 25.8507 17.6467 25.6876 17.5156C24.2588 16.4164 22.45 15.8148 20.6544 15.6488ZM15.7864 19.6392C17.1768 18.9808 18.7576 18.7572 20.2392 18.8968C21.688 19.0336 23.1528 19.5292 24.3112 20.442C24.3951 20.5065 24.4654 20.587 24.518 20.6789C24.5705 20.7708 24.6043 20.8722 24.6174 20.9772C24.6305 21.0823 24.6227 21.1888 24.5943 21.2908C24.5659 21.3928 24.5175 21.4881 24.452 21.5713C24.3865 21.6544 24.3052 21.7237 24.2127 21.7752C24.1202 21.8267 24.0184 21.8593 23.9133 21.8712C23.8081 21.883 23.7016 21.8739 23.5999 21.8443C23.4983 21.8147 23.4036 21.7653 23.3212 21.6988C22.4504 21.0128 21.2948 20.6036 20.0888 20.4896C18.8592 20.3736 17.572 20.564 16.4712 21.0856C16.3762 21.1306 16.2733 21.1564 16.1684 21.1616C16.0634 21.1668 15.9585 21.1513 15.8595 21.1159C15.7606 21.0805 15.6696 21.026 15.5917 20.9555C15.5138 20.885 15.4506 20.7998 15.4056 20.7048C15.3606 20.6098 15.3348 20.5069 15.3296 20.402C15.3244 20.297 15.3399 20.1921 15.3753 20.0931C15.4467 19.8933 15.5946 19.73 15.7864 19.6392ZM19.8252 22.1632C18.7316 22.0568 17.5644 22.22 16.5264 22.7072C16.4293 22.7506 16.3419 22.8129 16.2692 22.8904C16.1965 22.968 16.14 23.0593 16.1029 23.159C16.0659 23.2586 16.0491 23.3647 16.0535 23.4709C16.058 23.5771 16.0835 23.6814 16.1287 23.7776C16.1739 23.8739 16.2378 23.9601 16.3168 24.0314C16.3957 24.1026 16.488 24.1574 16.5883 24.1926C16.6887 24.2277 16.795 24.2425 16.9011 24.2361C17.0072 24.2297 17.111 24.2022 17.2064 24.1552C17.9568 23.8032 18.8316 23.674 19.6704 23.7556C20.5156 23.838 21.3168 24.1336 21.9144 24.6196C22.0794 24.7479 22.2881 24.8065 22.4958 24.7829C22.7035 24.7592 22.8937 24.6552 23.0257 24.4931C23.1577 24.331 23.221 24.1237 23.2021 23.9155C23.1832 23.7073 23.0835 23.5148 22.9244 23.3792C22.0392 22.6584 20.9228 22.27 19.8252 22.1632Z" fill="#1DD460"/>
</svg>
