
<svg width="64" height="64" viewBox="0 0 64 64" fill="none" xmlns="http://www.w3.org/2000/svg">
<rect width="64" height="64" rx="12" fill="#F0D34E"/>
<path d="M22.0491 37.712V37.4915C23.4958 35.6296 24.5832 34.5706 26.3925 33.3114C27.3275 32.6608 28.5641 32.6044 29.5057 33.2454C32.626 35.3694 35.2461 38.6332 36.9194 41.7832V42.09C35.2352 42.2403 33.5064 42.3685 31.7441 42.3685C28.5685 42.3685 22.514 41.6107 22.0491 37.712Z" fill="white"/>
<path d="M22.3539 37.1049C23.6548 35.4774 24.7126 34.4807 26.393 33.3114C27.328 32.6607 28.5642 32.6046 29.5058 33.2456C32.5736 35.3339 35.1579 38.5238 36.8342 41.6243" stroke="black" stroke-width="1.71" stroke-linecap="round" stroke-linejoin="round"/>
<path d="M22.3832 37.2039C22.6286 39.4977 24.4735 41.3425 26.7661 41.5981C28.469 41.7879 30.2174 41.9509 32 41.9509C33.7826 41.9509 35.531 41.7879 37.2338 41.5981C39.5265 41.3425 41.3713 39.4977 41.6167 37.2039C41.7979 35.5107 41.9509 33.7723 41.9509 32C41.9509 30.2277 41.7979 28.4893 41.6167 26.796C41.3713 24.5023 39.5265 22.6575 37.2338 22.4019C35.531 22.2121 33.7826 22.0491 32 22.0491C30.2174 22.0491 28.469 22.2121 26.7661 22.4019C24.4735 22.6575 22.6286 24.5023 22.3832 26.796C22.2021 28.4893 22.0491 30.2277 22.0491 32C22.0491 33.7723 22.2021 35.5107 22.3832 37.2039Z" stroke="black" stroke-width="1.71" stroke-linecap="round" stroke-linejoin="round"/>
<path d="M35.1842 31.6018C36.9673 31.6018 37.9704 30.5988 37.9704 28.8156C37.9704 27.0325 36.9673 26.0295 35.1842 26.0295C33.401 26.0295 32.398 27.0325 32.398 28.8156C32.398 30.5988 33.401 31.6018 35.1842 31.6018Z" fill="white"/>
<path d="M35.1842 31.6018C36.9673 31.6018 37.9704 30.5988 37.9704 28.8156C37.9704 27.0325 36.9673 26.0295 35.1842 26.0295C33.401 26.0295 32.398 27.0325 32.398 28.8156C32.398 30.5988 33.401 31.6018 35.1842 31.6018Z" stroke="black" stroke-width="1.71" stroke-linecap="round" stroke-linejoin="round"/>
</svg>
