<svg width="64" height="64" viewBox="0 0 64 64" fill="none" xmlns="http://www.w3.org/2000/svg">
  <rect width="64" height="64" rx="12" fill="black"/>
  <path d="M32 20C29.6266 20 27.3066 20.7038 25.3332 22.0224C23.3598 23.3409 21.8217 25.2151 20.9135 27.4078C20.0052 29.6005 19.7676 32.0133 20.2306 34.3411C20.6936 36.6688 21.8365 38.807 23.5147 40.4853C25.193 42.1635 27.3311 43.3064 29.6589 43.7694C31.9867 44.2324 34.3995 43.9948 36.5922 43.0865C38.7849 42.1783 40.6591 40.6402 41.9776 38.6668C43.2962 36.6934 44 34.3734 44 32C44 28.8174 42.7357 25.7652 40.4853 23.5147C38.2348 21.2643 35.1826 20 32 20ZM36.25 37.61C36.1762 37.6907 36.0867 37.7554 35.9869 37.8001C35.8872 37.8448 35.7793 37.8686 35.67 37.87C35.4793 37.8724 35.2943 37.8048 35.15 37.68C34.0929 36.8303 32.8172 36.2965 31.47 36.14C30.1403 35.9225 28.7764 36.0783 27.53 36.59C27.3481 36.6719 27.1413 36.679 26.9542 36.6098C26.7671 36.5406 26.6148 36.4006 26.53 36.22C26.4507 36.0378 26.445 35.832 26.5139 35.6456C26.5829 35.4592 26.7212 35.3067 26.9 35.22C28.4197 34.5754 30.0908 34.3743 31.72 34.64C33.3663 34.8357 34.9233 35.4945 36.21 36.54C36.3498 36.6807 36.4315 36.8689 36.4389 37.0672C36.4463 37.2654 36.3789 37.4592 36.25 37.61ZM38.2 34.32C38.1063 34.4267 37.9909 34.5122 37.8616 34.5708C37.7323 34.6294 37.592 34.6598 37.45 34.66C37.2069 34.6596 36.9723 34.5708 36.79 34.41C35.4273 33.3082 33.7804 32.6148 32.04 32.41C30.3118 32.122 28.5374 32.3265 26.92 33C26.8008 33.0587 26.6711 33.0931 26.5384 33.1011C26.4058 33.1091 26.2728 33.0906 26.1474 33.0467C26.022 33.0028 25.9066 32.9343 25.8079 32.8452C25.7093 32.7561 25.6294 32.6483 25.5729 32.528C25.5164 32.4077 25.4845 32.2774 25.4789 32.1446C25.4734 32.0118 25.4944 31.8793 25.5407 31.7547C25.587 31.6301 25.6576 31.516 25.7485 31.4191C25.8394 31.3221 25.9487 31.2442 26.07 31.19C28.0366 30.3399 30.207 30.0759 32.32 30.43C34.4448 30.6755 36.4544 31.5258 38.11 32.88C38.2129 32.9671 38.297 33.074 38.3575 33.1945C38.418 33.3149 38.4535 33.4463 38.4619 33.5808C38.4703 33.7153 38.4514 33.8501 38.4064 33.9771C38.3614 34.1042 38.2912 34.2208 38.2 34.32ZM40.2 30.79C40.0837 30.9154 39.943 31.0155 39.7865 31.0843C39.6299 31.1531 39.461 31.1891 39.29 31.19C38.9866 31.1881 38.6945 31.0742 38.47 30.87C36.788 29.4892 34.7424 28.6245 32.58 28.38C30.441 28.013 28.2414 28.2771 26.25 29.14C25.963 29.2513 25.6447 29.2509 25.358 29.1389C25.0713 29.0269 24.8369 28.8115 24.7013 28.5352C24.5657 28.2589 24.5385 27.9417 24.6253 27.6464C24.7121 27.3511 24.9064 27.099 25.17 26.94C27.633 25.8717 30.3541 25.545 33 26C35.6465 26.3147 38.1444 27.3917 40.19 29.1C40.4128 29.3219 40.5421 29.6207 40.5514 29.935C40.5607 30.2494 40.4493 30.5553 40.24 30.79H40.2Z" fill="#1DD460"/>
  </svg>
