<svg width="16" height="16" viewBox="0 0 16 16" fill="none" xmlns="http://www.w3.org/2000/svg">
<path fill-rule="evenodd" clip-rule="evenodd" d="M9.47825 15.8637C13.1903 15.1702 16 11.9132 16 8C16 3.58172 12.4183 0 8 0C3.58172 0 0 3.58172 0 8C0 12.062 3.02731 15.4168 6.9488 15.9316C6.93065 15.9056 6.92 15.874 6.92 15.84V10.4C6.92 10.3116 6.84837 10.24 6.76 10.24H5.16C5.07163 10.24 5 10.1683 5 10.08V8.15995C5 8.07159 5.07163 7.99995 5.16 7.99995H6.76C6.84837 7.99995 6.92 7.92832 6.92 7.83995V5.75995C6.92 4.79995 7.944 3.19995 9.48 3.19995H11.56C11.6484 3.19995 11.72 3.27159 11.72 3.35995V5.27995C11.72 5.36832 11.6484 5.43995 11.56 5.43995H10.6C10.28 5.43995 9.48 5.75995 9.48 6.39995V7.84006C9.48 7.92842 9.55163 7.99995 9.64 7.99995H11.24C11.3284 7.99995 11.4 8.07159 11.4 8.15995V10.08C11.4 10.1683 11.3284 10.24 11.24 10.24H9.64C9.55163 10.24 9.48 10.3116 9.48 10.4V15.84C9.48 15.848 9.4794 15.856 9.47825 15.8637ZM8.0282 16H7.9718C7.9812 16 7.9906 16 8 16C8.0094 16 8.0188 16 8.0282 16Z" fill="black"/>
</svg>
