<svg width="16" height="16" viewBox="0 0 16 16" fill="none" xmlns="http://www.w3.org/2000/svg">
<g clip-path="url(#clip0_0_3)"><mask id="mask0_0_3" maskUnits="userSpaceOnUse" x="0" y="0" width="16" height="16">
<path d="M16 0H0V16H16V0Z" fill="white"></path>
</mask><g mask="url(#mask0_0_3)">
<path fill-rule="evenodd" clip-rule="evenodd" d="M16 8C16 12.4183 12.4183 16 8 16C3.58172 16 0 12.4183 0 8C0 3.58172 3.58172 0 8 0C12.4183 0 16 3.58172 16 8ZM8.28668 5.90596C7.50857 6.22961 5.95342 6.89947 3.62126 7.91556C3.24256 8.06616 3.04417 8.21349 3.02611 8.35755C2.99559 8.60101 3.30049 8.69688 3.71569 8.82743C3.77215 8.84519 3.83065 8.86358 3.89063 8.88308C4.29909 9.01586 4.84855 9.17119 5.13419 9.17736C5.3933 9.18296 5.68249 9.07614 6.00176 8.8569C8.18077 7.38601 9.30559 6.64255 9.37621 6.62652C9.42603 6.61521 9.49507 6.601 9.54184 6.64257C9.58862 6.68415 9.58402 6.76289 9.57907 6.78401C9.54886 6.91277 8.35203 8.02545 7.73271 8.60123C7.53965 8.78071 7.40271 8.90802 7.37472 8.9371C7.312 9.00224 7.24808 9.06386 7.18665 9.12308C6.80717 9.4889 6.52261 9.76322 7.20241 10.2112C7.52876 10.4263 7.78998 10.6042 8.05051 10.7816C8.33559 10.9757 8.61985 11.1693 8.98774 11.4104C9.08136 11.4718 9.17078 11.5355 9.25787 11.5976C9.58935 11.834 9.88715 12.0463 10.2551 12.0124C10.4688 11.9928 10.6896 11.7917 10.8018 11.1922C11.0668 9.77544 11.5878 6.70565 11.7081 5.44066C11.7187 5.32983 11.7054 5.18799 11.6948 5.12573C11.6841 5.06346 11.6618 4.97475 11.5809 4.90908C11.4851 4.8313 11.3371 4.8149 11.2709 4.81607C10.97 4.82137 10.5084 4.98189 8.28668 5.90596Z" fill="black"></path></g></g><defs><linearGradient id="paint0_linear_0_3" x1="8" y1="0" x2="8" y2="15.8813" gradientUnits="userSpaceOnUse"><stop></stop><stop offset="1"></stop></linearGradient><clipPath id="clip0_0_3"><rect width="16" height="16" fill="black"></rect></clipPath></defs></svg>
