<svg width="14" height="16" viewBox="0 0 14 16" fill="none" xmlns="http://www.w3.org/2000/svg">
<path d="M7.30051 0.0133332C8.17383 0 9.04049 0.00666658 9.90714 0C9.96047 1.01999 10.3271 2.05997 11.0738 2.77997C11.8205 3.51996 12.8738 3.85995 13.9004 3.97328V6.65992C12.9404 6.62658 11.9738 6.42659 11.1005 6.01326C10.7205 5.83993 10.3671 5.61993 10.0205 5.39327C10.0138 7.33991 10.0271 9.28655 10.0071 11.2265C9.95381 12.1598 9.64715 13.0865 9.10715 13.8532C8.23383 15.1331 6.72052 15.9665 5.1672 15.9931C4.21388 16.0465 3.26056 15.7865 2.44724 15.3065C1.10059 14.5132 0.153933 13.0598 0.0139343 11.4999C0.000601121 11.1665 -0.00606545 10.8332 0.00726771 10.5065C0.127266 9.23989 0.753925 8.02657 1.72725 7.19991C2.8339 6.23992 4.38055 5.77993 5.82719 6.05326C5.84053 7.03991 5.80053 8.02657 5.80053 9.01322C5.14054 8.79989 4.36721 8.85989 3.78722 9.25988C3.36723 9.53321 3.04723 9.95321 2.88056 10.4265C2.74057 10.7665 2.78057 11.1399 2.78723 11.4999C2.94723 12.5932 4.00055 13.5132 5.12054 13.4132C5.86719 13.4065 6.58052 12.9732 6.96718 12.3398C7.09384 12.1198 7.23384 11.8932 7.24051 11.6332C7.30718 10.4399 7.28051 9.25322 7.28718 8.0599C7.29384 5.37327 7.28051 2.6933 7.30051 0.0133332Z" fill="black"/>
</svg>
