<svg width="16" height="16" viewBox="0 0 16 16" fill="none" xmlns="http://www.w3.org/2000/svg">
<path fill-rule="evenodd" clip-rule="evenodd" d="M15.1454 3.38984C15.3931 3.63047 15.5714 3.93007 15.6624 4.25867C15.895 5.49281 16.0079 6.74543 15.9996 8.00006C16.0079 9.25469 15.895 10.5073 15.6624 11.7414C15.5714 12.07 15.3931 12.3696 15.1454 12.6103C14.8977 12.8509 14.5893 13.0241 14.2511 13.1125C13.0054 13.4401 8 13.4401 8 13.4401C8 13.4401 2.99455 13.4401 1.74891 13.1125C1.41066 13.0241 1.10226 12.8509 0.854575 12.6103C0.606887 12.3696 0.428599 12.07 0.337555 11.7414C0.104965 10.5073 -0.007905 9.25469 0.00042994 8.00006C-0.007905 6.74543 0.104965 5.49281 0.337555 4.25867C0.428599 3.93007 0.606887 3.63047 0.854575 3.38984C1.10226 3.14922 1.41066 2.97602 1.74891 2.88757C2.99455 2.56006 8 2.56006 8 2.56006C8 2.56006 13.0054 2.56006 14.2511 2.88757C14.5893 2.97602 14.8977 3.14922 15.1454 3.38984ZM6.39999 5.6676V10.3326L10.56 8.0001L6.39999 5.6676Z" fill="black"/>
</svg>
