<svg width="40" height="40" viewBox="0 0 40 40" fill="none" xmlns="http://www.w3.org/2000/svg">
<g clip-path="url(#clip0_520_5658)">
<path d="M0 20.0001C0 8.95431 8.95431 0 20.0001 0C31.0457 0 40 8.95431 40 20.0001C40 31.0457 31.0457 40 20.0001 40C8.95431 40 0 31.0457 0 20.0001Z" fill="#5865F2"/>
<path d="M27.6239 13.3982C26.2217 12.751 24.7181 12.2742 23.1459 12.0011C23.1173 11.9959 23.0887 12.009 23.0739 12.0354C22.8805 12.3813 22.6664 12.8327 22.5163 13.1874C20.8254 12.9328 19.1431 12.9328 17.4868 13.1874C17.3368 12.8248 17.1148 12.3813 16.9205 12.0354C16.9058 12.0099 16.8772 11.9968 16.8486 12.0011C15.2773 12.2733 13.7736 12.7501 12.3705 13.3982C12.3584 13.4034 12.348 13.4122 12.341 13.4236C9.48894 17.7095 8.70763 21.89 9.09092 26.0187C9.09265 26.0388 9.10392 26.0582 9.11953 26.0705C11.0013 27.4604 12.8241 28.3043 14.613 28.8636C14.6416 28.8724 14.672 28.8618 14.6902 28.8381C15.1134 28.2568 15.4906 27.644 15.814 26.9995C15.8331 26.9617 15.8149 26.9169 15.7759 26.902C15.1775 26.6737 14.6078 26.3953 14.0598 26.0792C14.0164 26.0538 14.0129 25.9914 14.0528 25.9616C14.1682 25.8746 14.2835 25.7842 14.3936 25.6929C14.4136 25.6762 14.4413 25.6727 14.4647 25.6832C18.0652 27.3366 21.9631 27.3366 25.5211 25.6832C25.5445 25.6718 25.5722 25.6753 25.593 25.692C25.7032 25.7833 25.8185 25.8746 25.9347 25.9616C25.9746 25.9914 25.972 26.0538 25.9286 26.0792C25.3806 26.4015 24.8108 26.6737 24.2116 26.9011C24.1726 26.916 24.1553 26.9617 24.1743 26.9995C24.5047 27.6431 24.882 28.256 25.2973 28.8373C25.3147 28.8618 25.3459 28.8724 25.3745 28.8636C27.1721 28.3043 28.9949 27.4604 30.8767 26.0705C30.8931 26.0582 30.9035 26.0397 30.9053 26.0195C31.364 21.2463 30.137 17.1001 27.6525 13.4245C27.6465 13.4122 27.6361 13.4034 27.6239 13.3982ZM16.3517 23.5047C15.2677 23.5047 14.3745 22.5037 14.3745 21.2744C14.3745 20.0451 15.2504 19.0441 16.3517 19.0441C17.4616 19.0441 18.3461 20.0539 18.3288 21.2744C18.3288 22.5037 17.453 23.5047 16.3517 23.5047ZM23.6619 23.5047C22.5779 23.5047 21.6847 22.5037 21.6847 21.2744C21.6847 20.0451 22.5606 19.0441 23.6619 19.0441C24.7718 19.0441 25.6563 20.0539 25.639 21.2744C25.639 22.5037 24.7718 23.5047 23.6619 23.5047Z" fill="white"/>
</g>
<defs>
<clipPath id="clip0_520_5658">
<rect width="40" height="40" fill="white"/>
</clipPath>
</defs>
</svg>
