<svg width="40" height="40" viewBox="0 0 40 40" fill="none" xmlns="http://www.w3.org/2000/svg">
<g clip-path="url(#clip0_526_5890)">
<path d="M0 20.0001C0 8.95431 8.95431 0 20.0001 0C31.0457 0 40 8.95431 40 20.0001C40 31.0457 31.0457 40 20.0001 40C8.95431 40 0 31.0457 0 20.0001Z" fill="#6FD454"/>
<path d="M14.037 10.0398C14.2736 10.0199 14.4765 10.0777 14.6077 10.2948C14.902 10.7727 15.1983 11.2505 15.4787 11.7404C15.8028 12.3059 16.1012 12.8875 16.4194 13.459C16.5009 13.6124 16.6142 13.7517 16.7097 13.899C16.7972 14.0384 16.8808 14.1818 16.9623 14.3212C17.1293 14.6378 17.1214 14.9564 16.8728 15.2093C16.5188 15.5718 16.129 15.9083 15.7532 16.2528C15.4389 16.5416 15.1128 16.8184 14.8065 17.1131C14.568 17.3441 14.5062 17.6328 14.6674 17.9375C14.916 18.4035 15.1625 18.8696 15.4349 19.3256C16.4452 21.0123 17.7359 22.4461 19.3666 23.5513C19.995 23.9794 20.6493 24.3716 21.3095 24.746C21.932 25.0984 22.1746 25.0388 22.6578 24.4991C23.1073 23.9993 23.5408 23.4914 23.9883 22.9876C24.0957 22.8661 24.2249 22.7587 24.3502 22.6551C24.6048 22.4401 24.8831 22.4161 25.1755 22.5634C25.257 22.6033 25.3446 22.6392 25.4162 22.691C26.1918 23.2466 27.0587 23.6389 27.8781 24.1108C28.3176 24.3637 28.7452 24.6346 29.1767 24.8934C29.4094 25.0308 29.5028 25.2319 29.4869 25.5087C29.4431 26.2873 29.3139 27.0521 28.8625 27.7092C28.6736 27.982 28.4051 28.221 28.1346 28.4142C27.3849 28.9399 26.5477 29.2645 25.6568 29.4636C24.8474 29.6448 24.04 29.579 23.2644 29.3361C21.7669 28.8741 20.2914 28.3444 18.9331 27.5418C17.7001 26.811 16.5784 25.9288 15.5404 24.9431C14.2259 23.6906 13.0526 22.3245 12.104 20.7692C11.4855 19.7596 11.044 18.6724 10.6443 17.5632C10.4016 16.8941 10.163 16.2309 10.0556 15.522C9.93232 14.7195 10.0178 13.9468 10.2744 13.1861C10.5051 12.4991 10.7934 11.842 11.2289 11.2545C11.5709 10.7985 11.9985 10.4639 12.5514 10.3146C12.9948 10.1971 13.4423 10.1036 13.8878 10C13.9455 10.0458 13.9913 10.0458 14.037 10.0398Z" fill="white"/>
</g>
<defs>
<clipPath id="clip0_526_5890">
<rect width="40" height="40" fill="white"/>
</clipPath>
</defs>
</svg>
