<svg width="40" height="40" viewBox="0 0 40 40" fill="none" xmlns="http://www.w3.org/2000/svg">
<g clip-path="url(#clip0_526_6032)">
<path d="M20 40C31.0457 40 40 31.0457 40 20C40 8.95431 31.0457 0 20 0C8.95431 0 0 8.95431 0 20C0 31.0457 8.95431 40 20 40Z" fill="#25D366"/>
<path fill-rule="evenodd" clip-rule="evenodd" d="M19.686 31.1855H19.6811C17.7417 31.1848 15.8359 30.6982 14.1433 29.7749L8 31.3864L9.64404 25.3814C8.62992 23.6238 8.09629 21.6303 8.09716 19.5878C8.0997 13.1984 13.2984 8 19.6859 8C22.786 8.00134 25.6956 9.20819 27.8835 11.3987C30.0714 13.5891 31.2757 16.5006 31.2745 19.597C31.2719 25.985 26.0753 31.1828 19.686 31.1855ZM14.4279 27.677L14.7796 27.8857C16.2585 28.7633 17.9537 29.2276 19.6821 29.2283H19.686C24.9948 29.2283 29.3157 24.9073 29.3178 19.5963C29.3188 17.0226 28.3179 14.6027 26.4994 12.782C24.6808 10.9614 22.2625 9.95824 19.6898 9.95734C14.3768 9.95734 10.0559 14.2779 10.0538 19.5886C10.053 21.4086 10.5623 23.181 11.5265 24.7145L11.7554 25.0789L10.7824 28.6333L14.4279 27.677ZM25.1276 22.0919C25.3295 22.1896 25.466 22.2555 25.5242 22.3527C25.5965 22.4735 25.5965 23.0532 25.3554 23.7297C25.114 24.406 23.9572 25.0233 23.4008 25.1064C22.902 25.1811 22.2707 25.2121 21.577 24.9917C21.1565 24.8583 20.6171 24.6801 19.9264 24.3818C17.2118 23.2096 15.3773 20.5786 15.0306 20.0814C15.0063 20.0465 14.9893 20.0222 14.9798 20.0095L14.9774 20.0064C14.8242 19.8019 13.7974 18.4319 13.7974 17.0141C13.7974 15.6803 14.4526 14.9813 14.7543 14.6594C14.7749 14.6374 14.7939 14.6172 14.8109 14.5985C15.0763 14.3087 15.3901 14.2361 15.5831 14.2361C15.7761 14.2361 15.9693 14.238 16.1381 14.2464C16.1589 14.2475 16.1805 14.2473 16.2029 14.2472C16.3716 14.2462 16.582 14.245 16.7895 14.7435C16.8693 14.9353 16.9862 15.2197 17.1093 15.5196C17.3586 16.1263 17.6339 16.7966 17.6823 16.8935C17.7547 17.0384 17.803 17.2074 17.7065 17.4009C17.6919 17.4298 17.6786 17.4572 17.6658 17.4833C17.5932 17.6313 17.5399 17.7401 17.4169 17.8838C17.3685 17.9403 17.3185 18.0012 17.2685 18.0621C17.1688 18.1834 17.0692 18.3048 16.9826 18.3911C16.8375 18.5355 16.6867 18.6921 16.8556 18.9821C17.0245 19.2719 17.6057 20.2201 18.4665 20.9879C19.3917 21.8134 20.196 22.1622 20.6036 22.339C20.6832 22.3735 20.7477 22.4015 20.795 22.4252C21.0844 22.5702 21.2533 22.5459 21.4223 22.3527C21.5912 22.1594 22.1462 21.5071 22.3392 21.2173C22.5321 20.9275 22.7252 20.9758 22.9907 21.0723C23.2561 21.1692 24.6797 21.8696 24.9692 22.0145C25.0258 22.0428 25.0787 22.0683 25.1276 22.0919Z" fill="#FDFDFD"/>
</g>
<defs>
<clipPath id="clip0_526_6032">
<rect width="40" height="40" fill="white"/>
</clipPath>
</defs>
</svg>
